<?xml version="1.0" encoding="UTF-8" standalone="no"?>
<!DOCTYPE svg PUBLIC "-//W3C//DTD SVG 1.1//EN"
 "http://www.w3.org/Graphics/SVG/1.1/DTD/svg11.dtd">
<!-- Generated by graphviz version 2.43.0 (0)
 -->
<!-- Title: InfiniteConceptDAG Pages: 1 -->
<svg width="987pt" height="1683pt"
 viewBox="0.00 0.00 237.00 404.00" xmlns="http://www.w3.org/2000/svg" xmlns:xlink="http://www.w3.org/1999/xlink">
<g id="graph0" class="graph" transform="scale(4.17 4.17) rotate(0) translate(4 400)">
<title>InfiniteConceptDAG</title>
<polygon fill="white" stroke="transparent" points="-4,4 -4,-400 233,-400 233,4 -4,4"/>
<!-- ObjectiveReality -->
<g id="node1" class="node">
<title>ObjectiveReality</title>
<polygon fill="#f6f4f3" stroke="black" points="229,-396 96,-396 96,-360 229,-360 229,-396"/>
<text text-anchor="middle" x="162.5" y="-374.3" font-family="Helvetica,sans-Serif" font-size="14.00">Objective Reality</text>
</g>
<!-- TensionDetection -->
<g id="node2" class="node">
<title>TensionDetection</title>
<polygon fill="#a23b72" stroke="black" points="183,-324 44,-324 44,-288 183,-288 183,-324"/>
<text text-anchor="middle" x="113.5" y="-302.3" font-family="Helvetica,sans-Serif" font-size="14.00" fill="white">Tension Detection</text>
</g>
<!-- ObjectiveReality&#45;&gt;TensionDetection -->
<g id="edge1" class="edge">
<title>ObjectiveReality&#45;&gt;TensionDetection</title>
<path fill="none" stroke="#2e86ab" stroke-width="2" d="M150.39,-359.7C144.63,-351.47 137.64,-341.48 131.29,-332.42"/>
<polygon fill="#2e86ab" stroke="#2e86ab" stroke-width="2" points="134.08,-330.29 125.47,-324.1 128.34,-334.3 134.08,-330.29"/>
</g>
<!-- SubjectiveResolution -->
<g id="node3" class="node">
<title>SubjectiveResolution</title>
<polygon fill="#f18f01" stroke="black" points="183,-252 18,-252 18,-216 183,-216 183,-252"/>
<text text-anchor="middle" x="100.5" y="-230.3" font-family="Helvetica,sans-Serif" font-size="14.00">Subjective Resolution</text>
</g>
<!-- TensionDetection&#45;&gt;SubjectiveResolution -->
<g id="edge2" class="edge">
<title>TensionDetection&#45;&gt;SubjectiveResolution</title>
<path fill="none" stroke="#2e86ab" stroke-width="2" d="M110.29,-287.7C108.85,-279.98 107.13,-270.71 105.54,-262.11"/>
<polygon fill="#2e86ab" stroke="#2e86ab" stroke-width="2" points="108.94,-261.3 103.68,-252.1 102.06,-262.58 108.94,-261.3"/>
</g>
<!-- OntologicalCommitment -->
<g id="node4" class="node">
<title>OntologicalCommitment</title>
<polygon fill="#c73e1d" stroke="black" points="189,-180 0,-180 0,-144 189,-144 189,-180"/>
<text text-anchor="middle" x="94.5" y="-158.3" font-family="Helvetica,sans-Serif" font-size="14.00" fill="white">Ontological Commitment</text>
</g>
<!-- SubjectiveResolution&#45;&gt;OntologicalCommitment -->
<g id="edge3" class="edge">
<title>SubjectiveResolution&#45;&gt;OntologicalCommitment</title>
<path fill="none" stroke="#2e86ab" stroke-width="2" d="M99.02,-215.7C98.36,-207.98 97.56,-198.71 96.82,-190.11"/>
<polygon fill="#2e86ab" stroke="#2e86ab" stroke-width="2" points="100.31,-189.77 95.97,-180.1 93.33,-190.37 100.31,-189.77"/>
</g>
<!-- SafetyAction -->
<g id="node5" class="node">
<title>SafetyAction</title>
<polygon fill="#0f3460" stroke="black" points="169.5,-108 61.5,-108 61.5,-72 169.5,-72 169.5,-108"/>
<text text-anchor="middle" x="115.5" y="-86.3" font-family="Helvetica,sans-Serif" font-size="14.00" fill="white">Safety Action</text>
</g>
<!-- OntologicalCommitment&#45;&gt;SafetyAction -->
<g id="edge4" class="edge">
<title>OntologicalCommitment&#45;&gt;SafetyAction</title>
<path fill="none" stroke="#2e86ab" stroke-width="2" d="M99.69,-143.7C102.03,-135.9 104.85,-126.51 107.45,-117.83"/>
<polygon fill="#2e86ab" stroke="#2e86ab" stroke-width="2" points="110.85,-118.69 110.37,-108.1 104.14,-116.68 110.85,-118.69"/>
</g>
<!-- NewRealityState -->
<g id="node6" class="node">
<title>NewRealityState</title>
<polygon fill="#533747" stroke="black" points="225.5,-36 87.5,-36 87.5,0 225.5,0 225.5,-36"/>
<text text-anchor="middle" x="156.5" y="-14.3" font-family="Helvetica,sans-Serif" font-size="14.00" fill="white">New Reality State</text>
</g>
<!-- SafetyAction&#45;&gt;NewRealityState -->
<g id="edge5" class="edge">
<title>SafetyAction&#45;&gt;NewRealityState</title>
<path fill="none" stroke="#2e86ab" stroke-width="2" d="M125.63,-71.7C130.35,-63.64 136.06,-53.89 141.28,-44.98"/>
<polygon fill="#2e86ab" stroke="#2e86ab" stroke-width="2" points="144.45,-46.5 146.48,-36.1 138.41,-42.96 144.45,-46.5"/>
</g>
<!-- NewRealityState&#45;&gt;ObjectiveReality -->
<g id="edge6" class="edge">
<title>NewRealityState&#45;&gt;ObjectiveReality</title>
<path fill="none" stroke="gray" stroke-width="2" stroke-dasharray="5,2" d="M169.44,-36.34C187.34,-62.12 217.5,-112.7 217.5,-161 217.5,-235 217.5,-235 217.5,-235 217.5,-277.99 195.31,-323.66 179.12,-351.26"/>
<polygon fill="gray" stroke="gray" stroke-width="2" points="176.07,-349.53 173.9,-359.9 182.06,-353.15 176.07,-349.53"/>
</g>
</g>
</svg>
