<svg viewBox="0 0 512 512" xmlns="http://www.w3.org/2000/svg" style="background: white;">
  <!-- Outer Circle -->
  <circle cx="256" cy="256" r="230" fill="none" stroke="black" stroke-width="3"/>
  
  <!-- Central Cross (Bent Heart symbol) -->
  <line x1="256" y1="100" x2="256" y2="412" stroke="black" stroke-width="4"/>
  <line x1="100" y1="256" x2="412" y2="256" stroke="black" stroke-width="4"/>
  
  <!-- Inner architectural structure (central motif) -->
  <rect x="180" y="180" width="152" height="152" fill="none" stroke="black" stroke-width="3"/>
  <path d="M 180 220 L 220 180 L 220 220 Z" fill="none" stroke="black" stroke-width="2"/>
  <path d="M 332 220 L 292 180 L 292 220 Z" fill="none" stroke="black" stroke-width="2"/>
  <path d="M 180 292 L 220 332 L 220 292 Z" fill="none" stroke="black" stroke-width="2"/>
  <path d="M 332 292 L 292 332 L 292 292 Z" fill="none" stroke="black" stroke-width="2"/>
  
  <!-- Nsibidi-inspired symbols around the perimeter -->
  <!-- Top symbols -->
  <path d="M 240 60 L 250 40 L 260 45 L 270 40 L 280 60" fill="none" stroke="black" stroke-width="2"/>
  <circle cx="256" cy="70" r="8" fill="none" stroke="black" stroke-width="2"/>
  
  <!-- Right symbols (unity hands) -->
  <path d="M 420 240 C 430 240, 440 250, 430 260 C 420 270, 410 260, 420 250" fill="none" stroke="black" stroke-width="2"/>
  <path d="M 415 270 L 425 280 L 415 290" fill="none" stroke="black" stroke-width="2"/>
  
  <!-- Bottom symbols (journey path) -->
  <path d="M 240 440 L 256 420 L 272 440" fill="none" stroke="black" stroke-width="2"/>
  <path d="M 230 430 L 240 440 L 250 430" fill="none" stroke="black" stroke-width="2"/>
  <path d="M 262 430 L 272 440 L 282 430" fill="none" stroke="black" stroke-width="2"/>
  
  <!-- Left symbols (cultural markers) -->
  <path d="M 80 256 C 70 246, 70 266, 80 256 M 85 256 C 95 246, 95 266, 85 256" fill="none" stroke="black" stroke-width="2"/>
  <circle cx="90" cy="240" r="5" fill="none" stroke="black" stroke-width="2"/>
  <circle cx="90" cy="272" r="5" fill="none" stroke="black" stroke-width="2"/>
  
  <!-- Additional ideographic elements -->
  <!-- Northeast quadrant -->
  <path d="M 380 140 L 390 130 L 400 140 L 390 150 Z" fill="none" stroke="black" stroke-width="2"/>
  <line x1="385" y1="140" x2="395" y2="140" stroke="black" stroke-width="2"/>
  
  <!-- Southeast quadrant -->
  <path d="M 380 380 C 370 370, 390 370, 380 380 C 370 390, 390 390, 380 380" fill="none" stroke="black" stroke-width="2"/>
  
  <!-- Southwest quadrant -->
  <rect x="110" y="370" width="20" height="20" fill="none" stroke="black" stroke-width="2"/>
  <line x1="120" y1="370" x2="120" y2="390" stroke="black" stroke-width="2"/>
  <line x1="110" y1="380" x2="130" y2="380" stroke="black" stroke-width="2"/>
  
  <!-- Northwest quadrant -->
  <path d="M 120 120 L 130 110 L 140 120 M 125 125 L 130 130 L 135 125" fill="none" stroke="black" stroke-width="2"/>
  
  <!-- Motto text around the bottom -->
  <defs>
    <path id="mottoPath" d="M 100 400 A 200 200 0 0 0 412 400"/>
  </defs>
  <text font-family="Arial, sans-serif" font-size="14" font-weight="bold">
    <textPath href="#mottoPath" startOffset="50%" text-anchor="middle">
      When Systems Fail, We Build Our Own
    </textPath>
  </text>
  
  <!-- Constitutional elements -->
  <text x="256" y="500" font-family="Arial, sans-serif" font-size="12" text-anchor="middle">CONSTITUTIONAL IWU</text>
</svg>