<svg xmlns="http://www.w3.org/2000/svg" xmlns:xlink="http://www.w3.org/1999/xlink" contentStyleType="text/css" data-diagram-type="CLASS" height="507px" preserveAspectRatio="none" style="width:309px;height:507px;background:#FFFFFF;" version="1.1" viewBox="0 0 309 507" width="309px" zoomAndPan="magnify"><defs/><g><!--class TrieNode--><g class="entity" data-entity="TrieNode" data-source-line="3" data-uid="ent0002" id="entity_TrieNode"><rect fill="#F1F1F1" height="96.8906" rx="2.5" ry="2.5" style="stroke:#181818;stroke-width:0.5;" width="153.9277" x="88.92" y="7"/><ellipse cx="130.2806" cy="23" fill="#ADD1B2" rx="11" ry="11" style="stroke:#181818;stroke-width:1;"/><path d="M133.2493,28.6406 Q132.6712,28.9375 132.0306,29.0781 Q131.39,29.2344 130.6868,29.2344 Q128.1868,29.2344 126.8587,27.5938 Q125.5462,25.9375 125.5462,22.8125 Q125.5462,19.6875 126.8587,18.0313 Q128.1868,16.375 130.6868,16.375 Q131.39,16.375 132.0306,16.5313 Q132.6868,16.6875 133.2493,16.9844 L133.2493,19.7031 Q132.6243,19.125 132.0306,18.8594 Q131.4368,18.5781 130.8118,18.5781 Q129.4681,18.5781 128.7806,19.6563 Q128.0931,20.7188 128.0931,22.8125 Q128.0931,24.9063 128.7806,25.9844 Q129.4681,27.0469 130.8118,27.0469 Q131.4368,27.0469 132.0306,26.7813 Q132.6243,26.5 133.2493,25.9219 L133.2493,28.6406 Z " fill="#000000"/><text fill="#000000" font-family="sans-serif" font-size="14" lengthAdjust="spacing" textLength="63.3486" x="150.1385" y="27.8467">TrieNode</text><line style="stroke:#181818;stroke-width:0.5;" x1="89.92" x2="241.8477" y1="39" y2="39"/><text fill="#000000" font-family="sans-serif" font-size="14" lengthAdjust="spacing" textLength="93.1602" x="94.92" y="55.9951">+int terminal</text><text fill="#000000" font-family="sans-serif" font-size="14" lengthAdjust="spacing" textLength="106.709" x="94.92" y="72.292">+Phenotype *p</text><text fill="#000000" font-family="sans-serif" font-size="14" lengthAdjust="spacing" textLength="141.9277" x="94.92" y="88.5889">+AVLChild *children</text><line style="stroke:#181818;stroke-width:0.5;" x1="89.92" x2="241.8477" y1="95.8906" y2="95.8906"/></g><!--class AVLChild--><g class="entity" data-entity="AVLChild" data-source-line="9" data-uid="ent0003" id="entity_AVLChild"><rect fill="#F1F1F1" height="129.4844" rx="2.5" ry="2.5" style="stroke:#181818;stroke-width:0.5;" width="131.7656" x="7" y="180.89"/><ellipse cx="38.8737" cy="196.89" fill="#ADD1B2" rx="11" ry="11" style="stroke:#181818;stroke-width:1;"/><path d="M41.8424,202.5306 Q41.2643,202.8275 40.6237,202.9681 Q39.9831,203.1244 39.2799,203.1244 Q36.7799,203.1244 35.4518,201.4838 Q34.1393,199.8275 34.1393,196.7025 Q34.1393,193.5775 35.4518,191.9213 Q36.7799,190.265 39.2799,190.265 Q39.9831,190.265 40.6237,190.4213 Q41.2799,190.5775 41.8424,190.8744 L41.8424,193.5931 Q41.2174,193.015 40.6237,192.7494 Q40.0299,192.4681 39.4049,192.4681 Q38.0612,192.4681 37.3737,193.5463 Q36.6862,194.6088 36.6862,196.7025 Q36.6862,198.7963 37.3737,199.8744 Q38.0612,200.9369 39.4049,200.9369 Q40.0299,200.9369 40.6237,200.6713 Q41.2174,200.39 41.8424,199.8119 L41.8424,202.5306 Z " fill="#000000"/><text fill="#000000" font-family="sans-serif" font-size="14" lengthAdjust="spacing" textLength="62.2686" x="56.6234" y="201.7367">AVLChild</text><line style="stroke:#181818;stroke-width:0.5;" x1="8" x2="137.7656" y1="212.89" y2="212.89"/><text fill="#000000" font-family="sans-serif" font-size="14" lengthAdjust="spacing" textLength="72.0918" x="13" y="229.8851">+char key</text><text fill="#000000" font-family="sans-serif" font-size="14" lengthAdjust="spacing" textLength="119.7656" x="13" y="246.182">+TrieNode *child</text><text fill="#000000" font-family="sans-serif" font-size="14" lengthAdjust="spacing" textLength="79.0576" x="13" y="262.4789">+int height</text><text fill="#000000" font-family="sans-serif" font-size="14" lengthAdjust="spacing" textLength="108.3701" x="13" y="278.7757">+AVLChild *left</text><text fill="#000000" font-family="sans-serif" font-size="14" lengthAdjust="spacing" textLength="118.3438" x="13" y="295.0726">+AVLChild *right</text><line style="stroke:#181818;stroke-width:0.5;" x1="8" x2="137.7656" y1="302.3744" y2="302.3744"/></g><!--class Phenotype--><g class="entity" data-entity="Phenotype" data-source-line="17" data-uid="ent0004" id="entity_Phenotype"><rect fill="#F1F1F1" height="113.1875" rx="2.5" ry="2.5" style="stroke:#181818;stroke-width:0.5;" width="127.4727" x="174.15" y="189.04"/><ellipse cx="198.524" cy="205.04" fill="#ADD1B2" rx="11" ry="11" style="stroke:#181818;stroke-width:1;"/><path d="M201.4927,210.6806 Q200.9146,210.9775 200.274,211.1181 Q199.6333,211.2744 198.9302,211.2744 Q196.4302,211.2744 195.1021,209.6338 Q193.7896,207.9775 193.7896,204.8525 Q193.7896,201.7275 195.1021,200.0713 Q196.4302,198.415 198.9302,198.415 Q199.6333,198.415 200.274,198.5713 Q200.9302,198.7275 201.4927,199.0244 L201.4927,201.7431 Q200.8677,201.165 200.274,200.8994 Q199.6802,200.6181 199.0552,200.6181 Q197.7115,200.6181 197.024,201.6963 Q196.3365,202.7588 196.3365,204.8525 Q196.3365,206.9463 197.024,208.0244 Q197.7115,209.0869 199.0552,209.0869 Q199.6802,209.0869 200.274,208.8213 Q200.8677,208.54 201.4927,207.9619 L201.4927,210.6806 Z " fill="#000000"/><text fill="#000000" font-family="sans-serif" font-size="14" lengthAdjust="spacing" textLength="74.6416" x="214.6071" y="209.8867">Phenotype</text><line style="stroke:#181818;stroke-width:0.5;" x1="175.15" x2="300.6227" y1="221.04" y2="221.04"/><text fill="#000000" font-family="sans-serif" font-size="14" lengthAdjust="spacing" textLength="101.8213" x="180.15" y="238.0351">+double score</text><text fill="#000000" font-family="sans-serif" font-size="14" lengthAdjust="spacing" textLength="109.751" x="180.15" y="254.332">+uint64_t visits</text><text fill="#000000" font-family="sans-serif" font-size="14" lengthAdjust="spacing" textLength="115.4727" x="180.15" y="270.6289">+QualFlags qual</text><text fill="#000000" font-family="sans-serif" font-size="14" lengthAdjust="spacing" textLength="90.4053" x="180.15" y="286.9257">+char *meta</text><line style="stroke:#181818;stroke-width:0.5;" x1="175.15" x2="300.6227" y1="294.2275" y2="294.2275"/></g><!--class QualFlags--><g class="entity" data-entity="QualFlags" data-source-line="24" data-uid="ent0005" id="entity_QualFlags"><rect fill="#F1F1F1" height="129.4844" rx="2.5" ry="2.5" style="stroke:#181818;stroke-width:0.5;" width="129.0313" x="173.37" y="371.38"/><ellipse cx="200.9555" cy="387.38" fill="#EB937F" rx="11" ry="11" style="stroke:#181818;stroke-width:1;"/><path d="M205.0649,393.38 L197.3461,393.38 L197.3461,380.9894 L205.0649,380.9894 L205.0649,383.1456 L199.7992,383.1456 L199.7992,385.8175 L204.5649,385.8175 L204.5649,387.9738 L199.7992,387.9738 L199.7992,391.2238 L205.0649,391.2238 L205.0649,393.38 Z " fill="#000000"/><text fill="#000000" font-family="sans-serif" font-size="14" lengthAdjust="spacing" textLength="69.0635" x="217.7523" y="392.2267">QualFlags</text><line style="stroke:#181818;stroke-width:0.5;" x1="174.37" x2="301.4013" y1="403.38" y2="403.38"/><text fill="#000000" font-family="sans-serif" font-size="14" lengthAdjust="spacing" textLength="86.4541" x="179.37" y="420.3751">QUAL_NONE</text><text fill="#000000" font-family="sans-serif" font-size="14" lengthAdjust="spacing" textLength="117.0313" x="179.37" y="436.672">QUAL_RESILIENT</text><text fill="#000000" font-family="sans-serif" font-size="14" lengthAdjust="spacing" textLength="114.6729" x="179.37" y="452.9689">QUAL_CREATIVE</text><text fill="#000000" font-family="sans-serif" font-size="14" lengthAdjust="spacing" textLength="109.5664" x="179.37" y="469.2657">QUAL_ANXIOUS</text><text fill="#000000" font-family="sans-serif" font-size="14" lengthAdjust="spacing" textLength="111.4326" x="179.37" y="485.5626">QUAL_OPTIMIST</text><line style="stroke:#181818;stroke-width:0.5;" x1="174.37" x2="301.4013" y1="492.8644" y2="492.8644"/></g><!--link TrieNode to AVLChild--><g class="link" data-entity-1="TrieNode" data-entity-2="AVLChild" data-source-line="32" data-uid="lnk6" id="link_TrieNode_AVLChild"><path codeLine="32" d="M90.82,104.02 C81.97,112.84 74.21,122.82 68.88,133.89 C62.04,148.11 59.8459,158.5817 60.2259,174.4017" fill="none" id="TrieNode-to-AVLChild" style="stroke:#181818;stroke-width:1;"/><polygon fill="#181818" points="60.37,180.4,64.1527,171.3065,60.2499,175.4014,56.155,171.4986,60.37,180.4" style="stroke:#181818;stroke-width:1;"/><text fill="#000000" font-family="sans-serif" font-size="13" lengthAdjust="spacing" textLength="52.4443" x="69.88" y="146.9569">children</text><text fill="#000000" font-family="sans-serif" font-size="13" lengthAdjust="spacing" textLength="8.271" x="72.7073" y="123.28">1</text><text fill="#000000" font-family="sans-serif" font-size="13" lengthAdjust="spacing" textLength="6.5" x="52.796" y="169.9732">*</text></g><!--link AVLChild to TrieNode--><g class="link" data-entity-1="AVLChild" data-entity-2="TrieNode" data-source-line="33" data-uid="lnk7" id="link_AVLChild_TrieNode"><path codeLine="33" d="M111.34,180.43 C116.77,170.65 122.12,160.58 126.88,150.89 C134.24,135.93 139.1938,124.7756 145.3738,109.6256" fill="none" id="AVLChild-to-TrieNode" style="stroke:#181818;stroke-width:1;"/><polygon fill="#181818" points="147.64,104.07,140.537,110.8925,145.7515,108.6996,147.9444,113.9142,147.64,104.07" style="stroke:#181818;stroke-width:1;"/><text fill="#000000" font-family="sans-serif" font-size="13" lengthAdjust="spacing" textLength="30.8623" x="135.88" y="146.9569">child</text><text fill="#000000" font-family="sans-serif" font-size="13" lengthAdjust="spacing" textLength="8.271" x="106.9074" y="170.0063">1</text><text fill="#000000" font-family="sans-serif" font-size="13" lengthAdjust="spacing" textLength="8.271" x="136.531" y="124.0388">1</text></g><!--link TrieNode to Phenotype--><g class="link" data-entity-1="TrieNode" data-entity-2="Phenotype" data-source-line="34" data-uid="lnk8" id="link_TrieNode_Phenotype"><path codeLine="34" d="M186.79,104.17 C190.91,113.96 195.12,124.22 198.88,133.89 C205.75,151.56 210.7979,165.3468 216.9579,182.9468" fill="none" id="TrieNode-to-Phenotype" style="stroke:#181818;stroke-width:1;"/><polygon fill="#181818" points="218.94,188.61,219.7423,178.7939,217.2882,183.8907,212.1914,181.4367,218.94,188.61" style="stroke:#181818;stroke-width:1;"/><text fill="#000000" font-family="sans-serif" font-size="13" lengthAdjust="spacing" textLength="69.7227" x="205.88" y="146.9569">phenotype</text><text fill="#000000" font-family="sans-serif" font-size="13" lengthAdjust="spacing" textLength="8.271" x="181.08" y="123.801">1</text><text fill="#000000" font-family="sans-serif" font-size="13" lengthAdjust="spacing" textLength="24.8066" x="191.2176" y="177.8212">0..1</text></g><!--link Phenotype to QualFlags--><g class="link" data-entity-1="Phenotype" data-entity-2="QualFlags" data-source-line="35" data-uid="lnk9" id="link_Phenotype_QualFlags"><path codeLine="35" d="M237.88,302.67 C237.88,324.16 237.88,342.84 237.88,365.02" fill="none" id="Phenotype-to-QualFlags" style="stroke:#181818;stroke-width:1;"/><polygon fill="#181818" points="237.88,371.02,241.88,362.02,237.88,366.02,233.88,362.02,237.88,371.02" style="stroke:#181818;stroke-width:1;"/></g><!--SRC=[RP1HQuCm58NV_HKN7nqj7Omzz64WnK70QLjjsLj9zQw6nkYIEEZ6_llKsAHioyjDlfoSStFLcOcMIbf3mQbIeTQI7JkDf6X4nZuH5futta0k6IPDYV3bGR_kcD2WKTPCK6x8kaBHw4kB4BI6XFjuLJ5UGb0CHQBmlgz-zcxoAoeguOmNSx9fvgMBh92TAltRdkFR7oP7eSrptKs1PTCTEO8g6ec6T7t0uyD1mmTJJ2i3DntbpvoU5Bntrv-ElGOrQZhue-XgS39Zlzc5yI59ayYTjb56OX8bkKEhRHJcP7yZ2fDNakuo1z9rJbv8bWz9TYh-lG-psHFuWUy6kGGxPSkiiA_szIJynsund_TRDwebjDUzv-WWjV_z0G00]--></g></svg>